<svg id="visual" viewBox="0 0 960 300" width="960" height="300" xmlns="http://www.w3.org/2000/svg" xmlns:xlink="http://www.w3.org/1999/xlink" version="1.1"><path d="M0 37L14.5 37.5C29 38 58 39 87.2 42C116.3 45 145.7 50 174.8 49.5C204 49 233 43 262 41.5C291 40 320 43 349 46C378 49 407 52 436.2 49.5C465.3 47 494.7 39 523.8 33.5C553 28 582 25 611 23.5C640 22 669 22 698 25C727 28 756 34 785.2 37.5C814.3 41 843.7 42 872.8 39C902 36 931 29 945.5 25.5L960 22L960 0L945.5 0C931 0 902 0 872.8 0C843.7 0 814.3 0 785.2 0C756 0 727 0 698 0C669 0 640 0 611 0C582 0 553 0 523.8 0C494.7 0 465.3 0 436.2 0C407 0 378 0 349 0C320 0 291 0 262 0C233 0 204 0 174.8 0C145.7 0 116.3 0 87.2 0C58 0 29 0 14.5 0L0 0Z" fill="#000000"></path><path d="M0 82L14.5 83C29 84 58 86 87.2 84.5C116.3 83 145.7 78 174.8 75.5C204 73 233 73 262 75.5C291 78 320 83 349 86.5C378 90 407 92 436.2 85.5C465.3 79 494.7 64 523.8 56.5C553 49 582 49 611 52C640 55 669 61 698 62.5C727 64 756 61 785.2 60.5C814.3 60 843.7 62 872.8 60C902 58 931 52 945.5 49L960 46L960 20L945.5 23.5C931 27 902 34 872.8 37C843.7 40 814.3 39 785.2 35.5C756 32 727 26 698 23C669 20 640 20 611 21.5C582 23 553 26 523.8 31.5C494.7 37 465.3 45 436.2 47.5C407 50 378 47 349 44C320 41 291 38 262 39.5C233 41 204 47 174.8 47.5C145.7 48 116.3 43 87.2 40C58 37 29 36 14.5 35.5L0 35Z" fill="#303030"></path><path d="M0 127L14.5 141.5C29 156 58 185 87.2 183.5C116.3 182 145.7 150 174.8 138C204 126 233 134 262 142C291 150 320 158 349 163C378 168 407 170 436.2 167C465.3 164 494.7 156 523.8 148.5C553 141 582 134 611 130.5C640 127 669 127 698 125C727 123 756 119 785.2 119.5C814.3 120 843.7 125 872.8 131.5C902 138 931 146 945.5 150L960 154L960 44L945.5 47C931 50 902 56 872.8 58C843.7 60 814.3 58 785.2 58.5C756 59 727 62 698 60.5C669 59 640 53 611 50C582 47 553 47 523.8 54.5C494.7 62 465.3 77 436.2 83.5C407 90 378 88 349 84.5C320 81 291 76 262 73.5C233 71 204 71 174.8 73.5C145.7 76 116.3 81 87.2 82.5C58 84 29 82 14.5 81L0 80Z" fill="#5e5e5e"></path><path d="M0 232L14.5 235.5C29 239 58 246 87.2 244C116.3 242 145.7 231 174.8 227.5C204 224 233 228 262 227C291 226 320 220 349 217C378 214 407 214 436.2 210.5C465.3 207 494.7 200 523.8 197C553 194 582 195 611 196C640 197 669 198 698 202.5C727 207 756 215 785.2 215C814.3 215 843.7 207 872.8 209C902 211 931 223 945.5 229L960 235L960 152L945.5 148C931 144 902 136 872.8 129.5C843.7 123 814.3 118 785.2 117.5C756 117 727 121 698 123C669 125 640 125 611 128.5C582 132 553 139 523.8 146.5C494.7 154 465.3 162 436.2 165C407 168 378 166 349 161C320 156 291 148 262 140C233 132 204 124 174.8 136C145.7 148 116.3 180 87.2 181.5C58 183 29 154 14.5 139.5L0 125Z" fill="#919191"></path><path d="M0 268L14.5 269.5C29 271 58 274 87.2 271C116.3 268 145.7 259 174.8 254.5C204 250 233 250 262 247.5C291 245 320 240 349 237.5C378 235 407 235 436.2 234C465.3 233 494.7 231 523.8 229.5C553 228 582 227 611 227.5C640 228 669 230 698 235.5C727 241 756 250 785.2 251C814.3 252 843.7 245 872.8 248C902 251 931 264 945.5 270.5L960 277L960 233L945.5 227C931 221 902 209 872.8 207C843.7 205 814.3 213 785.2 213C756 213 727 205 698 200.5C669 196 640 195 611 194C582 193 553 192 523.8 195C494.7 198 465.3 205 436.2 208.5C407 212 378 212 349 215C320 218 291 224 262 225C233 226 204 222 174.8 225.5C145.7 229 116.3 240 87.2 242C58 244 29 237 14.5 233.5L0 230Z" fill="#c6c6c6"></path><path d="M0 301L14.5 301C29 301 58 301 87.2 301C116.3 301 145.7 301 174.8 301C204 301 233 301 262 301C291 301 320 301 349 301C378 301 407 301 436.2 301C465.3 301 494.7 301 523.8 301C553 301 582 301 611 301C640 301 669 301 698 301C727 301 756 301 785.2 301C814.3 301 843.7 301 872.8 301C902 301 931 301 945.5 301L960 301L960 275L945.5 268.5C931 262 902 249 872.8 246C843.7 243 814.3 250 785.2 249C756 248 727 239 698 233.5C669 228 640 226 611 225.5C582 225 553 226 523.8 227.5C494.7 229 465.3 231 436.2 232C407 233 378 233 349 235.5C320 238 291 243 262 245.5C233 248 204 248 174.8 252.5C145.7 257 116.3 266 87.2 269C58 272 29 269 14.5 267.5L0 266Z" fill="#ffffff"></path></svg>